<svg width="256" height="256" viewBox="0 0 256 256" fill="none" xmlns="http://www.w3.org/2000/svg">
<path d="M219.451 122.624L230.476 102.2C234.022 95.6309 234.907 87.9499 232.947 80.7467C231.708 76.1933 226.361 74.2056 222.448 76.8438L187.091 100.686C179.915 105.524 170.279 104.605 163.474 99.2574C149.311 88.1281 123.38 71.4672 95.0573 71.4672C52.1475 71.4672 13 103.5 13 132.721C13 152.568 36.8136 173.187 68.2896 180.044C69.1308 180.415 69.9856 180.756 70.8523 181.065L73.8071 182.118C84.3437 185.875 92.8877 193.774 97.4584 203.984L100.055 209.786C103.707 217.942 115.408 217.579 118.546 209.211L125 192L126.604 187.677C128.48 182.62 132.005 178.342 136.61 175.534L150.604 167C154.782 164.927 158.516 162.864 161.726 160.969C169.625 156.305 179.801 156.313 187.048 161.938L220.932 188.234C225.384 191.689 231.919 189.4 233.242 183.922C235.016 176.576 233.971 168.831 230.313 162.217L219.554 142.763C216.093 136.505 216.054 128.916 219.451 122.624Z" fill="#4DA6FF"/>
<path d="M62 145C55.4 145 49.75 142.846 45.05 138.537C40.35 134.229 38 129.05 38 123C38 116.95 40.35 111.771 45.05 107.462C49.75 103.154 55.4 101 62 101C64.3 101 66.425 101.252 68.375 101.756C70.325 102.26 72.2 103.017 74 104.025V51.5C74 49.9417 74.575 48.6354 75.725 47.5813C76.875 46.5271 78.3 46 80 46H104C105.7 46 107.125 46.5271 108.275 47.5813C109.425 48.6354 110 49.9417 110 51.5V62.5C110 64.0583 109.425 65.3646 108.275 66.4187C107.125 67.4729 105.7 68 104 68H86V123C86 129.05 83.65 134.229 78.95 138.537C74.25 142.846 68.6 145 62 145Z" fill="#1D2021"/>
</svg>
