<svg width="256" height="256" viewBox="0 0 256 256" fill="none" xmlns="http://www.w3.org/2000/svg">
<path d="M221.889 76.0146L186.532 99.8569C179.761 104.421 170.601 103.586 164.092 98.4711C149.839 87.2715 123.637 72.5 95 72.5C78.5122 72.5 62.5381 75.1555 49.014 82.6751C27.3157 94.7399 12 114.141 12 132.721C12 143.047 18.1811 153.416 28.1897 162.012C38.1962 170.607 52.1373 177.533 67.9787 181C68.8119 181.365 69.6583 181.701 70.5165 182.007L73.4712 183.06C74.1587 183.305 74.8038 183.533 75.4127 183.747C79.5205 185.197 81.9802 186.065 84.6875 187.812C87.8098 189.827 91.2748 193.027 97.7843 199.698L97.7929 199.707L106.313 208.227C107.355 209.269 108.513 210.158 109.681 210.967C110.024 211.204 110.377 211.454 110.739 211.709C112.48 212.941 114.175 213.306 116 214.003C117.128 214.434 119.5 214.003 119.5 214.003C120.714 213.721 123.008 213.328 123.853 212.045C124.805 210.6 125.093 209.893 125.295 208.431L125.802 197.507C125.893 196.846 125.923 196.14 125.951 195.495C125.964 195.21 125.976 194.936 125.992 194.684C126.068 193.503 126.375 191.446 127.438 188.582C129.248 183.702 132.746 179.061 137.131 176.388L151.088 167.876C155.274 165.798 159.016 163.73 162.234 161.83C169.831 157.344 179.556 157.389 186.435 162.728L220.319 189.024C225.344 192.924 232.721 190.34 234.214 184.157C236.047 176.567 234.967 168.566 231.188 161.733L220.429 142.279C217.133 136.319 217.096 129.091 220.331 123.099L231.356 102.675C235.024 95.8801 235.939 87.935 233.912 80.4841C232.493 75.2697 226.37 72.9936 221.889 76.0146Z" fill="#4DA6FF"/>
<path d="M221.889 76.0146L222.448 76.8438M221.889 76.0146L186.532 99.8569C179.761 104.421 170.601 103.586 164.092 98.4711C149.839 87.2715 123.637 72.5 95 72.5C78.5122 72.5 62.5381 75.1555 49.014 82.6751C27.3157 94.7399 12 114.141 12 132.721C12 143.047 18.1811 153.416 28.1897 162.012C38.1962 170.607 52.1373 177.533 67.9787 181C68.8119 181.365 69.6583 181.701 70.5165 182.007L73.4712 183.06C74.1587 183.305 74.8038 183.533 75.4127 183.747C79.5205 185.197 81.9802 186.065 84.6875 187.812C87.8098 189.827 91.2748 193.027 97.7843 199.698L97.7929 199.707L106.313 208.227C107.355 209.269 108.513 210.158 109.681 210.967C110.024 211.204 110.377 211.454 110.739 211.709C112.48 212.941 114.175 213.306 116 214.003C117.128 214.434 119.5 214.003 119.5 214.003C120.714 213.721 123.008 213.328 123.853 212.045C124.805 210.6 125.093 209.893 125.295 208.431L125.802 197.507C125.893 196.846 125.923 196.14 125.951 195.495C125.964 195.21 125.976 194.936 125.992 194.684C126.068 193.503 126.375 191.446 127.438 188.582C129.248 183.702 132.746 179.061 137.131 176.388M221.889 76.0146C226.37 72.9936 232.493 75.2697 233.912 80.4841C235.939 87.935 235.024 95.8801 231.356 102.675L220.331 123.099M137.131 176.388L136.61 175.534M137.131 176.388L151.088 167.876C155.274 165.798 159.016 163.73 162.234 161.83M162.234 161.83L161.726 160.969M162.234 161.83C169.831 157.344 179.556 157.389 186.435 162.728M186.435 162.728L187.048 161.938M186.435 162.728L220.319 189.024C225.344 192.924 232.721 190.34 234.214 184.157M234.214 184.157L233.242 183.922M234.214 184.157C236.047 176.567 234.967 168.566 231.188 161.733L220.429 142.279C217.133 136.319 217.096 129.091 220.331 123.099M220.331 123.099L219.451 122.624" stroke="white" stroke-width="6"/>
<path d="M44.3743 109.725C39.4803 114.212 37 119.653 37 126C37 132.347 39.4802 137.788 44.3743 142.274C49.2658 146.759 55.1596 149 62 149C68.8404 149 74.7342 146.759 79.6257 142.274C84.5198 137.788 87 132.347 87 126V72H104C105.926 72 107.599 71.3949 108.951 70.1559C110.307 68.9126 111 67.3389 111 65.5V54.5C111 52.6611 110.307 51.0874 108.951 49.8441C107.599 48.6051 105.926 48 104 48H80C78.0742 48 76.4009 48.6051 75.0493 49.8441C73.6929 51.0874 73 52.6611 73 54.5V105.382C71.586 104.708 70.1276 104.176 68.6252 103.788C66.5829 103.26 64.3727 103 62 103C55.1595 103 49.2658 105.241 44.3743 109.725Z" fill="#1D2021" stroke="white" stroke-width="6"/>
<path d="M113 114C119.84 142.41 115.5 150.5 96.5 165" stroke="white" stroke-width="8" stroke-linecap="round"/>
</svg>
